<svg data-v-423bf9ae="" xmlns="http://www.w3.org/2000/svg" viewBox="0 0 143.77412579208797 60" class="font"><!----><!----><!----><g data-v-423bf9ae="" id="275634ea-69a5-4cbd-8e59-257a16db4024" fill="black" transform="matrix(4.966871763892457,0,0,4.966871763892457,-4.172174343630587,-18.575907889559453)"><path d="M8.97 11.16C8.97 11.00 8.85 10.89 8.69 10.89L7.77 10.89L6.06 4.05L6.05 3.98C6.01 3.88 5.91 3.81 5.80 3.81L3.96 3.81C3.85 3.81 3.75 3.88 3.71 3.98L3.70 4.06L0.85 15.41C0.85 15.43 0.85 15.44 0.84 15.44L0.84 15.50C0.84 15.67 0.97 15.79 1.11 15.79L2.80 15.79C2.91 15.79 3.02 15.71 3.05 15.60C3.05 15.58 3.07 15.57 3.07 15.57L3.68 13.06L6.08 13.06L6.69 15.55L6.71 15.60C6.75 15.71 6.85 15.79 6.96 15.79L8.65 15.79C8.81 15.79 8.92 15.67 8.92 15.50L8.92 15.47L8.90 15.40L8.32 13.06L8.69 13.06C8.85 13.06 8.97 12.95 8.97 12.80ZM4.23 10.89L4.89 8.30L5.53 10.89ZM18.93 15.37L16.70 11.42L16.39 10.89L16.32 10.77C18.35 10.32 19.40 8.82 19.40 7.35C19.40 6.38 18.96 5.46 18.19 4.82C17.40 4.14 16.30 3.79 15.02 3.79L10.93 3.79C10.78 3.79 10.65 3.92 10.65 4.06L10.65 5.17L10.79 5.42L10.79 5.43L12.66 8.71L10.65 8.71L10.65 15.54C10.65 15.69 10.78 15.82 10.93 15.82L12.57 15.82C12.71 15.82 12.84 15.69 12.84 15.54L12.84 10.89L13.89 10.89L14.18 11.42L16.58 15.65L16.60 15.69C16.65 15.76 16.73 15.82 16.83 15.82L18.70 15.82C18.86 15.82 18.97 15.69 18.97 15.53C18.97 15.48 18.97 15.44 18.94 15.40ZM14.87 8.19L13.62 5.98L15.02 5.98C16.53 5.98 17.21 6.69 17.21 7.35C17.21 7.91 16.70 8.53 15.57 8.68C15.44 8.69 15.30 8.71 15.16 8.71ZM28.62 15.29C28.98 15.12 29.33 14.92 29.67 14.69L29.67 14.67L29.68 14.67C29.68 14.66 29.68 14.66 29.69 14.66C29.81 14.56 29.82 14.38 29.71 14.27L28.66 13.02C28.57 12.91 28.41 12.88 28.29 12.95C28.29 12.96 28.28 12.96 28.28 12.96C26.68 14.04 24.49 13.76 23.21 12.26C21.84 10.64 22.04 8.22 23.65 6.85C24.92 5.77 26.71 5.66 28.07 6.45C28.18 6.51 28.29 6.50 28.38 6.43L29.69 5.32C29.81 5.22 29.82 5.04 29.71 4.91L29.68 4.89L29.64 4.86C27.44 3.29 24.37 3.35 22.23 5.17C19.68 7.32 19.38 11.14 21.53 13.68C23.31 15.78 26.22 16.35 28.62 15.29Z"></path></g><!----><!----></svg>